<?xml version="1.0" encoding="UTF-8" standalone="no"?>
<!-- Created with Inkscape (http://www.inkscape.org/) -->

<svg
   width="24mm"
   height="24mm"
   viewBox="0 0 24 24"
   version="1.1"
   id="svg1"
   xml:space="preserve"
   xmlns="http://www.w3.org/2000/svg"
   xmlns:svg="http://www.w3.org/2000/svg"><defs
     id="defs1" /><g
     id="layer1"><path
       style="fill:#000000;stroke-width:0.147998"
       d="m 11.700406,23.953958 c -0.127169,-0.05673 -0.607774,-0.344769 -2.0949442,-1.255564 -0.66764,-0.408886 -1.575124,-0.963108 -2.016628,-1.231606 -0.441505,-0.268498 -0.864409,-0.528074 -0.939788,-0.576836 -0.07538,-0.04876 -0.26921,-0.167732 -0.430736,-0.264373 -0.161525,-0.09664 -0.804694,-0.489126 -1.42926,-0.872185 -0.624567,-0.38306 -1.304245,-0.798796 -1.510396,-0.923855 -0.418357,-0.253795 -0.618492,-0.436837 -0.688299,-0.629514 -0.07298,-0.201438 -0.07296,-8.052584 2.3e-5,-8.2272567 0.07913,-0.189388 0.240388,-0.312335 1.243153,-0.947832 0.503999,-0.319404 1.057329,-0.671496 1.229623,-0.782424 0.172295,-0.110928 0.34349,-0.212925 0.380435,-0.226662 0.0622,-0.02312 0.06732,-0.170648 0.06916,-1.992049 l 0.002,-1.967074 0.09796,-0.167158 c 0.08016,-0.136787 0.194212,-0.226149 0.627707,-0.491827 0.29136,-0.178569 1.00029,-0.616192 1.5754,-0.972497 0.575109,-0.356304 1.433315,-0.886957 1.907125,-1.179228 C 10.196751,0.95374632 10.787055,0.58623032 11.034728,0.42931732 11.602687,0.06948732 11.753529,0.00111232 11.981756,4.3316864e-5 12.232634,-0.00115668 12.274882,0.01850332 13.063362,0.50276032 c 0.578674,0.355401 1.535186,0.93899298 2.122095,1.29474398 1.791092,1.085654 3.086585,1.889962 3.163969,1.96435 0.203073,0.195212 0.203606,0.201229 0.203606,2.29779 v 1.951405 l 1.184522,0.738545 c 1.404166,0.875491 1.525689,0.960328 1.639596,1.144632 l 0.08722,0.1411197 -0.0094,4.056744 -0.0094,4.056743 -0.09971,0.171128 c -0.118959,0.204175 -0.08531,0.182145 -3.027723,1.982041 -1.953745,1.19512 -3.157991,1.934625 -3.833318,2.353973 -0.932312,0.578922 -1.932558,1.176777 -2.099092,1.254642 -0.212994,0.09959 -0.516182,0.118764 -0.685263,0.04334 z m 0.883098,-6.065818 c 0.278854,-0.175685 0.921098,-0.569684 1.427213,-0.875554 0.506116,-0.30587 1.158094,-0.702377 1.448841,-0.881125 1.201185,-0.738481 1.782676,-1.094313 2.525678,-1.545543 0.430737,-0.261588 1.112067,-0.677069 1.514068,-0.923291 l 0.730913,-0.447679 0.01308,-0.626526 c 0.0072,-0.344588 0.0106,-0.631946 0.0076,-0.638572 -0.003,-0.0066 -0.610964,0.361479 -1.350946,0.818018 -0.739981,0.456535 -1.741895,1.071355 -2.226473,1.366269 -1.589269,0.967218 -3.929795,2.395283 -4.212751,2.570397 -0.195197,0.120802 -0.319762,0.17167 -0.420378,0.17167 -0.148505,0 -0.438039,-0.16436 -2.1020172,-1.193245 -1.02205,-0.631964 -1.974779,-1.213419 -3.132627,-1.91186 -2.640219,-1.59264 -2.798747,-1.690326 -2.926893,-1.803574 -0.04837,-0.04275 -0.09242,-0.07032 -0.09789,-0.06126 -0.0055,0.0091 -0.0047,0.299076 0.0016,0.644485 0.01104,0.598352 0.01566,0.630613 0.0979,0.683032 0.287574,0.183302 2.497021,1.535867 3.725483,2.280641 0.493968,0.299474 0.943303,0.5762 0.998524,0.614944 0.05522,0.03875 0.347097,0.22033 0.648612,0.403524 0.301515,0.183193 0.9975462,0.611448 1.5467342,0.951678 1.069038,0.662283 1.171776,0.722382 1.235518,0.722755 0.02266,1.33e-4 0.269356,-0.1435 0.54821,-0.319188 z M 9.5775328,13.417247 c 1.3840132,-1.016105 2.3097352,-1.631561 2.4540742,-1.631561 0.115912,0 0.829087,0.475465 2.047598,1.365108 0.476051,0.347567 0.899926,0.631942 0.941944,0.631942 0.04202,0 0.0941,-0.02203 0.115742,-0.04895 0.02164,-0.02692 0.466516,-0.79784 0.988619,-1.713154 0.522101,-0.915314 0.975847,-1.685479 1.008323,-1.711477 0.07684,-0.06151 0.200575,0.0029 0.44368,0.231093 0.0988,0.09273 0.32229,0.296673 0.496633,0.453212 0.174345,0.156538 0.322578,0.31995 0.329408,0.363137 0.01082,0.06838 0.06394,0.04172 0.411148,-0.206299 0.219303,-0.156652 0.429492,-0.303568 0.46709,-0.326479 0.05878,-0.03582 -0.05429,-0.15106 -0.806851,-0.822314 -1.394044,-1.2434387 -1.423727,-1.2682587 -1.517969,-1.2692237 -0.120188,-0.0012 -0.180189,0.09255 -0.926382,1.4479317 -0.517872,0.940659 -1.137703,2.046606 -1.181213,2.107602 -0.005,0.007 -0.334655,-0.230922 -0.732642,-0.528631 -0.974187,-0.728725 -1.122164,-0.834971 -1.162912,-0.834971 -0.01916,0 -0.146029,0.08454 -0.28192,0.187861 -0.57677,0.43854 -0.642651,0.447839 -1.076857,0.151993 -0.168188,-0.114596 -0.36054,-0.24025 -0.427445,-0.279231 l -0.121649,-0.07088 -0.927378,0.695359 c -0.5100592,0.382448 -0.9322602,0.688716 -0.9382282,0.680598 -0.02151,-0.02927 -1.198208,-2.143543 -1.533741,-2.7558067 -0.188841,-0.344589 -0.368283,-0.667209 -0.398758,-0.716933 -0.115878,-0.189059 -0.210878,-0.124541 -1.396424,0.948386 -0.616611,0.5580347 -1.12111,1.0293977 -1.12111,1.0474717 0,0.01807 0.01974,0.03286 0.04387,0.03286 0.02413,0 0.225214,0.132158 0.446859,0.293685 0.221644,0.161525 0.413356,0.293682 0.426024,0.293682 0.01267,0 0.02304,-0.03378 0.02304,-0.07506 0,-0.116504 1.159368,-1.170487 1.219778,-1.108903 0.01554,0.01584 0.470372,0.803375 1.010732,1.750071 0.54036,0.946696 1.00404,1.734966 1.0304,1.751714 0.0932,0.05921 0.15373,0.02795 0.646523,-0.333841 z M 12.447445,9.8405243 c 0.579847,-0.349233 1.858142,-1.128362 3.286218,-2.002974 0.721482,-0.441864 1.37346,-0.838027 1.448838,-0.880362 l 0.137053,-0.07697 v -0.621156 c 0,-0.341633 -0.0032,-0.621153 -0.0071,-0.621153 -0.01521,0 -1.850502,1.118379 -2.890596,1.761452 -1.825833,1.128885 -2.367395,1.445311 -2.447304,1.429922 -0.04126,-0.0079 -0.265202,-0.130989 -0.497645,-0.273428 -1.055969,-0.647085 -2.8813942,-1.769012 -3.1832512,-1.956459 -0.377993,-0.234725 -1.572781,-0.961484 -1.580687,-0.961492 -0.0029,-3e-6 -0.0022,0.277203 0.0015,0.616012 l 0.0067,0.616019 0.189112,0.121315 c 0.104013,0.06672 0.374135,0.2326 0.60027,0.368615 0.226137,0.136015 0.657852,0.400768 0.959367,0.588342 0.49899,0.31042 2.2930772,1.412285 3.1128842,1.911823 0.182974,0.111492 0.369363,0.2027117 0.414199,0.2027117 0.04484,0 0.247552,-0.1 0.450477,-0.2222177 z m 0.07949,-3.587645 c 2.660915,-1.611835 3.297638,-2.008949 3.35173,-2.090415 0.08409,-0.126646 -0.02107,-0.214585 -0.840423,-0.702784 -0.425151,-0.253319 -1.151855,-0.691743 -1.614896,-0.974271 -1.300886,-0.79375 -1.316226,-0.802448 -1.414805,-0.8023 -0.05102,7.7e-5 -0.489244,0.239962 -0.973823,0.533081 -0.484578,0.293118 -1.2775242,0.770765 -1.7621022,1.061439 -1.018197,0.610765 -1.135577,0.692833 -1.135577,0.793967 0,0.04088 0.05727,0.117298 0.127263,0.169813 0.125919,0.09448 1.8954592,1.199407 2.6137852,1.632096 0.2046,0.12324 0.521778,0.314465 0.704841,0.424946 0.183064,0.110481 0.378793,0.200885 0.434955,0.200901 0.05618,1.6e-5 0.285184,-0.110865 0.509052,-0.246473 z m -1.139796,-1.342733 c -0.33382,-0.204699 -0.7421,-0.454055 -0.907288,-0.554126 -0.473407,-0.286787 -0.47682,-0.28012 0.413329,-0.807612 1.033465,-0.61242 1.102387,-0.651546 1.147674,-0.651546 0.02194,0 0.196601,0.09064 0.388138,0.201419 0.191538,0.110781 0.582271,0.335449 0.868297,0.499263 0.286025,0.163813 0.567961,0.337956 0.626524,0.386986 l 0.10648,0.08915 -0.110399,0.08706 c -0.103776,0.08184 -1.802096,1.07947 -1.88665,1.108257 -0.02154,0.0073 -0.312285,-0.15415 -0.646105,-0.358851 z"
       id="path1" /></g></svg>
